<?xml version="1.0" encoding="UTF-8"?>
<svg id="katman_1" data-name="katman 1" xmlns="http://www.w3.org/2000/svg" viewBox="0 0 511.31 314.59">
  <defs>
    <style>
      .cls-1 {
        fill: #231f20;
      }
    </style>
  </defs>
  <path class="cls-1" d="m507.08,145.11C502.36,139.21,391.47,0,255.61,0,187.77,0,126.03,34.8,80.81,70.39,35.49,105.88,6.59,142.16,4.23,145.11c-2.85,3.54-4.23,7.87-4.23,12.19s1.38,8.55,4.23,12.09c4.72,6,115.61,145.2,251.38,145.2,67.93,0,129.57-34.8,174.89-70.39,45.32-35.49,74.22-71.77,76.58-74.81,2.75-3.54,4.23-7.77,4.23-12.09s-1.48-8.65-4.23-12.19Zm-251.48,90.84c-43.36,0-78.65-35.29-78.65-78.65s35.29-78.65,78.65-78.65,78.65,35.29,78.65,78.65-35.2,78.65-78.65,78.65Z"/>
  <circle class="cls-1" cx="255.61" cy="157.3" r="39.32" transform="translate(77.76 399.06) rotate(-85.27)"/>
</svg>