<?xml version="1.0" encoding="UTF-8"?>
<svg id="katman_1" data-name="katman 1" xmlns="http://www.w3.org/2000/svg" viewBox="0 0 24 24">
  <path class="cls-1" d="m20.84,14.04h0c-.11,0-.21.09-.21.2v6.4c0,1.3-1.06,2.36-2.36,2.36h-3.47c-.36,0-.65-.29-.65-.65v-5.18c0-.59-.48-1.08-1.08-1.08h-2c-.71,0-1.28.57-1.28,1.28v4.98c0,.36-.29.65-.65.65h-3.41c-1.31,0-2.36-1.06-2.36-2.36v-6.4c0-.11-.09-.2-.21-.2h0c-1.93,0-2.89-2.33-1.52-3.68L10.48,1.62c.84-.83,2.2-.83,3.04,0l8.84,8.73c1.37,1.35.41,3.68-1.52,3.68Z"/>
</svg>