<?xml version="1.0" encoding="UTF-8"?>
<svg id="katman_3" data-name="katman 3" xmlns="http://www.w3.org/2000/svg" viewBox="0 0 512 512.18">
  <path d="m459.58,151.55c.31,4.51.31,9.03.31,13.58,0,138.8-105.67,298.88-298.88,298.88v-.08c-57.08.08-112.97-16.27-161.02-47.09,8.3,1,16.64,1.5,25,1.52,47.3.04,93.25-15.83,130.46-45.05-44.95-.85-84.37-30.16-98.14-72.95,15.75,3.04,31.97,2.41,47.42-1.81-49.01-9.9-84.26-52.96-84.26-102.96v-1.33c14.6,8.13,30.95,12.65,47.67,13.15C22.01,176.56,7.78,115.15,35.65,67.15c53.33,65.63,132.02,105.52,216.49,109.74-8.47-36.48,3.1-74.71,30.39-100.36,42.31-39.77,108.85-37.73,148.62,4.56,23.53-4.64,46.07-13.27,66.71-25.5-7.84,24.32-24.25,44.97-46.18,58.1,20.82-2.45,41.16-8.03,60.32-16.54-14.1,21.13-31.87,39.54-52.42,54.41h0Z"/>
</svg>